<svg xmlns="http://www.w3.org/2000/svg" xmlns:xlink="http://www.w3.org/1999/xlink" width="143" height="114" viewBox="0 0 143 114">
  <defs>
    <clipPath id="clip-Artboard_2">
      <rect width="143" height="114"/>
    </clipPath>
  </defs>
  <g id="Artboard_2" data-name="Artboard – 2" clip-path="url(#clip-Artboard_2)">
    <line id="Line_1" data-name="Line 1" x2="46.444" y2="11.088" transform="translate(51.573 108.558)" fill="#fff"/>
    <path id="Subtraction_3" data-name="Subtraction 3" d="M11.064,34.231l-.04-.022.022.006L11,34.172l.093.054L57.537,45.314l60.3-38.277c.873-.612,1.3-.882,1.3-.882l-.14.151.864-.547-1.343,1.049L61.741,66.06l-.005-.023.005.024L33.067,46.213l27.343,11.6C63.339,55.031,83.975,35.454,97.67,23.4q1.848-1.629,3.529-3.074L60.078,52.443,20.293,39.721,63.7,73.208,62.559,72.2l46-48.7c.029-.033,3.009-3.251,8.791-9.17.79-.808,1.637-1.744,2.536-2.737,1.5-1.667,3.076-3.4,4.621-4.814l.616-.562c1.335-1.222,2.6-2.378,3.709-3.32C131.019,1.05,132.476.011,132.493,0L68.323,76.778l.021.017L64.093,82.46Zm1.323.737.033-.007-.114-.064-.642-.348Z" transform="translate(0 16)" fill="#0abc39" stroke="rgba(0,0,0,0)" stroke-miterlimit="10" stroke-width="1"/>
  </g>
</svg>
